<?xml version="1.0" encoding="iso-8859-1"?>
<!-- Generator: Adobe Illustrator 19.0.0, SVG Export Plug-In . SVG Version: 6.00 Build 0)  -->
<svg version="1.1" id="Layer_1" xmlns="http://www.w3.org/2000/svg" xmlns:xlink="http://www.w3.org/1999/xlink" x="0px" y="0px"
	 viewBox="0 0 512 512" style="enable-background:new 0 0 512 512;" xml:space="preserve">
<path style="fill:#D7F3FF;" d="M511.994,256c0,21.477-2.635,42.314-7.623,62.239c-1.034,4.15-2.167,8.263-3.411,12.315
	c-0.197,0.653-0.394,1.293-0.591,1.933c-6.083,19.482-14.445,37.966-24.765,55.133C430.852,462.137,349.254,512,256.006,512
	C140.555,512,42.948,435.574,11.04,330.554c-1.244-4.064-2.377-8.165-3.411-12.315c-4.286-17.142-6.835-34.974-7.463-53.286
	c-0.111-2.968-0.16-5.96-0.16-8.953c0-1.121,0.012-2.241,0.025-3.362c0.197-15.135,1.699-29.95,4.421-44.333
	c0.776-4.138,1.65-8.251,2.635-12.315C34.081,83.556,135.284,0,256.006,0c128.948,0,235.631,95.341,253.377,219.388
	c0.357,2.451,0.677,4.914,0.961,7.389C511.44,236.37,511.994,246.111,511.994,256z"/>
<g>
	<rect x="160.252" y="207.073" style="fill:#333333;" width="12.315" height="40.602"/>
	<rect x="220.854" y="207.073" style="fill:#333333;" width="12.315" height="40.602"/>
	<rect x="450.574" y="207.073" style="fill:#333333;" width="12.315" height="40.602"/>
</g>
<path style="fill:#E2BFA1;" d="M511.587,241.518c0.271,4.79,0.406,9.618,0.406,14.482c0,26.649-4.064,52.338-11.625,76.487
	l-65.798,1.429l-2.364-82.731l-37.043,5.148l-1.847-14.162l24.63-9.852l39.407-1.231L511.587,241.518z"/>
<polygon style="fill:#CEAA91;" points="225.219,319.754 238.15,341.329 154.409,403.289 105.15,405.752 105.15,324.396 
	138.4,304.36 184.58,308.67 211.057,312.365 220.404,308.892 "/>
<polygon style="fill:#E2BFA1;" points="198.373,324.396 171.773,324.396 145.173,324.396 116.849,324.396 98.993,268.647 
	105.766,233.55 140.247,226.777 224.603,232.319 296.645,222.467 304.65,276.652 257.238,323.448 207.363,324.446 207.301,324.396 
	"/>
<path style="fill:#F4C290;" d="M116.849,200.916l-0.517,0.961l-68.446-36.673l-37.314,17.77
	c5.086-17.118,11.921-33.484,20.282-48.902c5.443-1.379,11.157-2.118,17.031-2.118C85.976,131.953,116.849,162.826,116.849,200.916z
	"/>
<g>
	<path style="fill:#F9D2AF;" d="M116.849,202.147H5.683c1.392-6.49,3.017-12.881,4.889-19.174l37.314-17.77l68.446,36.673
		L116.849,202.147z"/>
	<path style="fill:#F9D2AF;" d="M89.756,258.795H59.117H28.49H0.031c-0.025-0.936-0.025-1.86-0.025-2.795
		c0-18.472,1.958-36.489,5.677-53.853h111.166v20.935v18.435v17.278H89.756z"/>
</g>
<path style="fill:#F4C290;" d="M116.849,324.396v76.429l-80.453-13.205c-11.736-19.531-20.935-40.75-27.142-63.224H28.49h30.627
	h30.639H116.849z"/>
<path style="fill:#F9D2AF;" d="M89.756,324.396H59.117H28.49H9.255c-5.788-20.911-8.99-42.905-9.224-65.601H28.49h30.627h30.639
	h27.093v65.601H89.756z"/>
<path style="fill:#E0AC7E;" d="M123.006,202.147c0,3.399-2.759,6.157-6.157,6.157H4.452c0.776-4.138,1.65-8.251,2.635-12.315
	h109.762C120.248,195.99,123.006,198.749,123.006,202.147z"/>
<g>
	<path style="fill:#666666;" d="M49.265,365.318H36.951v-18.805c0-3.4,2.757-6.157,6.157-6.157l0,0c3.4,0,6.157,2.757,6.157,6.157
		V365.318z"/>
	<path style="fill:#666666;" d="M79.905,365.318H67.59v-18.805c0-3.4,2.757-6.157,6.157-6.157l0,0c3.4,0,6.157,2.757,6.157,6.157
		V365.318z"/>
	<path style="fill:#666666;" d="M151.33,330.554h-12.315v-29.888c0-3.4,2.757-6.157,6.157-6.157l0,0c3.4,0,6.157,2.757,6.157,6.157
		V330.554z"/>
	<path style="fill:#666666;" d="M151.33,283.425h-12.315V264.62c0-3.4,2.757-6.157,6.157-6.157l0,0c3.4,0,6.157,2.757,6.157,6.157
		V283.425z"/>
	<path style="fill:#666666;" d="M177.93,330.554h-12.315v-29.888c0-3.4,2.757-6.157,6.157-6.157l0,0c3.4,0,6.157,2.757,6.157,6.157
		V330.554z"/>
	<path style="fill:#666666;" d="M177.93,283.425h-12.315V264.62c0-3.4,2.757-6.157,6.157-6.157l0,0c3.4,0,6.157,2.757,6.157,6.157
		V283.425z"/>
	<path style="fill:#666666;" d="M204.53,330.554h-12.315v-29.888c0-3.4,2.757-6.157,6.157-6.157l0,0c3.4,0,6.157,2.757,6.157,6.157
		V330.554z"/>
	<path style="fill:#666666;" d="M204.53,283.425h-12.315V264.62c0-3.4,2.757-6.157,6.157-6.157l0,0c3.4,0,6.157,2.757,6.157,6.157
		V283.425z"/>
	<path style="fill:#666666;" d="M231.13,283.425h-12.315V264.62c0-3.4,2.757-6.157,6.157-6.157l0,0c3.4,0,6.157,2.757,6.157,6.157
		V283.425z"/>
	<path style="fill:#666666;" d="M483.83,283.425h-12.315V264.62c0-3.4,2.757-6.157,6.157-6.157l0,0c3.4,0,6.157,2.757,6.157,6.157
		V283.425z"/>
	<path style="fill:#666666;" d="M150.555,365.318H138.24v-18.805c0-3.4,2.757-6.157,6.157-6.157l0,0c3.4,0,6.157,2.757,6.157,6.157
		V365.318z"/>
	<path style="fill:#666666;" d="M174.962,365.318h-12.315v-18.805c0-3.4,2.757-6.157,6.157-6.157l0,0c3.4,0,6.157,2.757,6.157,6.157
		V365.318z"/>
	<path style="fill:#666666;" d="M89.756,264.337c-3.4,0-6.157-2.757-6.157-6.157v-22.167c0-3.4,2.757-6.157,6.157-6.157
		s6.157,2.757,6.157,6.157v22.167C95.914,261.58,93.157,264.337,89.756,264.337z"/>
	<path style="fill:#666666;" d="M28.49,264.337c-3.4,0-6.157-2.757-6.157-6.157v-22.167c0-3.4,2.757-6.157,6.157-6.157
		s6.157,2.757,6.157,6.157v22.167C34.648,261.58,31.89,264.337,28.49,264.337z"/>
	<path style="fill:#666666;" d="M59.117,264.337c-3.4,0-6.157-2.757-6.157-6.157v-22.167c0-3.4,2.757-6.157,6.157-6.157
		c3.4,0,6.157,2.757,6.157,6.157v22.167C65.275,261.58,62.517,264.337,59.117,264.337z"/>
	<path style="fill:#666666;" d="M89.756,329.938c-3.4,0-6.157-2.757-6.157-6.157v-22.167c0-3.4,2.757-6.157,6.157-6.157
		s6.157,2.757,6.157,6.157v22.167C95.914,327.181,93.157,329.938,89.756,329.938z"/>
	<path style="fill:#666666;" d="M28.49,329.938c-3.4,0-6.157-2.757-6.157-6.157v-22.167c0-3.4,2.757-6.157,6.157-6.157
		s6.157,2.757,6.157,6.157v22.167C34.648,327.181,31.89,329.938,28.49,329.938z"/>
</g>
<path style="fill:#967965;" d="M504.371,318.239c-1.034,4.15-2.167,8.263-3.411,12.315H104.128
	c-5.098-4.064-9.741-8.165-13.99-12.315H504.371z"/>
<path style="fill:#666666;" d="M59.117,329.938c-3.4,0-6.157-2.757-6.157-6.157v-22.167c0-3.4,2.757-6.157,6.157-6.157
	c3.4,0,6.157,2.757,6.157,6.157v22.167C65.275,327.181,62.517,329.938,59.117,329.938z"/>
<g>
	<path style="fill:#E0AC7E;" d="M122.945,324.396c0,3.399-2.759,6.157-6.157,6.157H11.04c-1.244-4.064-2.377-8.165-3.411-12.315
		h109.158C120.186,318.239,122.945,320.997,122.945,324.396z"/>
	<path style="fill:#E0AC7E;" d="M123.006,258.795c0,3.399-2.759,6.157-6.157,6.157H0.166c-0.111-2.968-0.16-5.96-0.16-8.953
		c0-1.121,0.012-2.241,0.025-3.362h116.818C120.248,252.638,123.006,255.397,123.006,258.795z"/>
</g>
<path style="fill:#967965;" d="M509.9,223.083h-53.163h-1.392h-46.698H227.005h-60.589h-49.567v18.435h49.567h60.589h284.583
	C511.243,235.311,510.676,229.166,509.9,223.083z"/>
<path style="fill:#333333;" d="M510.344,226.777H116.849v-7.389h392.534C509.74,221.839,510.06,224.302,510.344,226.777z"/>
<path style="fill:#CCCCCC;" d="M500.369,332.487c-0.591,1.909-1.219,3.818-1.86,5.702c-1.219,3.608-2.512,7.167-3.891,10.689
	c-0.222,0.579-0.443,1.145-0.677,1.724c-0.85,2.143-1.736,4.286-2.66,6.404c-3.128,7.303-6.601,14.445-10.394,21.379
	c-1.047,1.933-2.118,3.842-3.226,5.739c-0.677,1.17-1.355,2.34-2.057,3.497l-126.005,32.089l-195.19-32.089l27.351-32.622v-0.012
	l4.975-5.923v-0.012l28.706-34.235l4.963-5.923l28.693-34.223l4.963-5.923l28.693-34.223l4.975-5.936l28.681-34.211l4.975-5.936
	l28.706-34.247l0.406-0.48l7.931,9.458l35.146,41.92l8.645,10.32l34.999,41.759l8.657,10.307l41.55,49.567l8.633,10.295
	L500.369,332.487z"/>
<polygon style="fill:#FFFFFF;" points="403.34,387.621 226.451,429.561 154.409,387.621 181.76,354.999 181.76,354.986 
	186.735,349.063 186.735,349.051 215.441,314.815 220.404,308.892 249.098,274.669 254.06,268.746 282.754,234.523 287.729,228.587 
	316.41,194.377 321.385,188.441 350.091,154.194 350.498,153.713 "/>
<path style="fill:#B3B3B3;" d="M493.94,350.602l-40.097-47.831l-7.968-35.294l-8.657-10.307l7.98,35.294l-35.011-41.772
	l-7.968-35.282l-8.645-10.32l7.968,35.294l-35.134-41.907l-7.98-35.307l-7.931-9.458l-0.406,0.48l7.672,33.964l-28.706,34.235
	l-7.672-33.952l-4.975,5.936l7.672,33.94l-28.681,34.223l-7.672-33.952l-4.975,5.936l7.672,33.952l-28.681,34.223l-7.684-33.952
	l-4.963,5.923l7.672,33.964l-28.693,34.223l-7.672-33.964l-4.963,5.923l7.66,33.964l-28.693,34.235l-7.672-33.952l-4.975,5.923
	v0.012l7.377,32.622h9.433l26.243-31.28l7.056,31.28h6.318l-8.399-37.215l28.681-34.223l8.436,37.338l-28.583,34.1h8.042
	l22.253-26.551l5.997,26.551h6.318l-7.34-32.486l28.693-34.223l8.436,37.338l-24.617,29.371h8.029l18.287-21.822l4.938,21.822h6.305
	l-6.268-27.745l28.681-34.223l8.448,37.351l-20.64,24.617h8.042l14.297-17.068l3.855,17.068h6.318l-5.197-23.004l28.693-34.235
	l8.596,38.028l-16.12,19.211h8.042l9.778-11.662l2.635,11.662h6.318l-12.955-57.35l35.134,41.907l3.485,15.443h6.317l-1.158-5.148
	l4.31,5.148h8.042l-15.32-18.263l-10.443-46.205l35.023,41.784l5.123,22.684h6.318l-2.795-12.376l7.438,8.879
	c1.108-1.897,2.18-3.805,3.226-5.739l-13.632-16.268l-10.443-46.23l34.469,41.119C492.204,354.888,493.091,352.745,493.94,350.602z
	 M359.463,195.707l8.436,37.338l-28.693,34.235l-8.436-37.338L359.463,195.707z M271.88,347.585l-8.436-37.339l28.693-34.223
	l8.436,37.338L271.88,347.585z M297.113,270.088l28.681-34.211l8.436,37.338l-28.681,34.223L297.113,270.088z M315.696,352.326
	l-8.448-37.351l28.693-34.211l8.436,37.338L315.696,352.326z M340.904,274.829l28.706-34.235l8.436,37.351l-28.693,34.235
	L340.904,274.829z M359.487,357.068l-8.436-37.338l28.693-34.235l8.436,37.338L359.487,357.068z M404.51,253.5l10.443,46.23
	l-35.146-41.92l-10.443-46.217L404.51,253.5z M428.352,359.063l-35.134-41.907l-10.443-46.23l35.134,41.92L428.352,359.063z
	 M458.609,351.809l-35.023-41.772l-10.443-46.23l35.023,41.772L458.609,351.809z M496.058,327.34l-8.633-10.295l7.192,31.834
	c1.379-3.522,2.672-7.081,3.891-10.689L496.058,327.34z"/>
<path style="fill:#E6E6E6;" d="M475.604,387.621C430.852,462.137,349.254,512,256.006,512S81.148,462.137,36.396,387.621H475.604z"
	/>
<g>
</g>
<g>
</g>
<g>
</g>
<g>
</g>
<g>
</g>
<g>
</g>
<g>
</g>
<g>
</g>
<g>
</g>
<g>
</g>
<g>
</g>
<g>
</g>
<g>
</g>
<g>
</g>
<g>
</g>
</svg>
